<?xml version="1.0" encoding="UTF-8"?>
<svg version="1.1" xmlns="http://www.w3.org/2000/svg" width="500" height="500">
<path d="M0 0 C0.90045044 -0.00705963 1.80090088 -0.01411926 2.7286377 -0.02139282 C40.56271231 -0.2507174 40.56271231 -0.2507174 57.20703125 3.203125 C58.69759033 3.50911621 58.69759033 3.50911621 60.21826172 3.82128906 C82.21378087 8.47295034 102.99514255 15.36588877 123.20703125 25.203125 C123.94405273 25.56132324 124.68107422 25.91952148 125.44042969 26.28857422 C144.89901796 35.8774365 162.98020988 48.4248097 178.93359375 63.11328125 C181.05333337 65.06183915 183.21186594 66.95069833 185.39453125 68.828125 C191.89170121 74.51964589 197.4893498 80.59900765 202.8984375 87.33984375 C204.36112473 89.1539719 205.84574865 90.95080689 207.359375 92.72265625 C240.62231866 131.88029879 262.13973065 186.51250595 262.41015625 237.99609375 C262.41721588 238.89654419 262.42427551 239.79699463 262.43154907 240.72473145 C262.66087365 278.55880606 262.66087365 278.55880606 259.20703125 295.203125 C258.90104004 296.69368408 258.90104004 296.69368408 258.58886719 298.21435547 C253.93720591 320.20987462 247.04426748 340.9912363 237.20703125 361.203125 C236.84883301 361.94014648 236.49063477 362.67716797 236.12158203 363.43652344 C226.53271975 382.89511171 213.98534655 400.97630363 199.296875 416.9296875 C197.3483171 419.04942712 195.45945792 421.20795969 193.58203125 423.390625 C187.89051036 429.88779496 181.8111486 435.48544355 175.0703125 440.89453125 C173.25618435 442.35721848 171.45934936 443.8418424 169.6875 445.35546875 C130.52985746 478.61841241 75.8976503 500.1358244 24.4140625 500.40625 C23.06338684 500.41683945 23.06338684 500.41683945 21.6854248 500.42764282 C-16.14864981 500.6569674 -16.14864981 500.6569674 -32.79296875 497.203125 C-34.28352783 496.89713379 -34.28352783 496.89713379 -35.80419922 496.58496094 C-57.79971837 491.93329966 -78.58108005 485.04036123 -98.79296875 475.203125 C-99.52999023 474.84492676 -100.26701172 474.48672852 -101.02636719 474.11767578 C-120.48495546 464.5288135 -138.56614738 451.9814403 -154.51953125 437.29296875 C-156.63927087 435.34441085 -158.79780344 433.45555167 -160.98046875 431.578125 C-167.47763871 425.88660411 -173.0752873 419.80724235 -178.484375 413.06640625 C-179.94706223 411.2522781 -181.43168615 409.45544311 -182.9453125 407.68359375 C-216.20825616 368.52595121 -237.72566815 313.89374405 -237.99609375 262.41015625 C-238.00315338 261.50970581 -238.01021301 260.60925537 -238.01748657 259.68151855 C-238.24681115 221.84744394 -238.24681115 221.84744394 -234.79296875 205.203125 C-234.48697754 203.71256592 -234.48697754 203.71256592 -234.17480469 202.19189453 C-229.52314341 180.19637538 -222.63020498 159.4150137 -212.79296875 139.203125 C-212.43477051 138.46610352 -212.07657227 137.72908203 -211.70751953 136.96972656 C-202.11865725 117.51113829 -189.57128405 99.42994637 -174.8828125 83.4765625 C-172.9342546 81.35682288 -171.04539542 79.19829031 -169.16796875 77.015625 C-163.47644786 70.51845504 -157.3970861 64.92080645 -150.65625 59.51171875 C-148.84212185 58.04903152 -147.04528686 56.5644076 -145.2734375 55.05078125 C-106.11579496 21.78783759 -51.4835878 0.2704256 0 0 Z " fill="#000000" transform="translate(237.79296875,-0.203125)"/>
<path d="M0 0 C3.98474244 3.28830998 6.51938992 6.84332602 8.16796875 11.7890625 C8.26281973 13.74570349 8.29711422 15.70547135 8.29939651 17.66440868 C8.30323766 18.89857027 8.3070788 20.13273186 8.31103635 21.40429229 C8.31025606 22.78126226 8.30937726 24.15823217 8.30841064 25.53520203 C8.31099358 26.99226978 8.31400654 28.44933683 8.31741405 29.90640289 C8.32549589 33.92034061 8.32727428 37.93426046 8.32801151 41.94820535 C8.32986003 46.27350431 8.3374064 50.59879394 8.34414673 54.92408752 C8.35773943 64.38695388 8.36375635 73.849816 8.36815739 83.3126905 C8.37091847 89.22000007 8.3751556 95.127308 8.37966156 101.03461647 C8.39185591 117.38593156 8.4021546 133.73724533 8.40553665 150.08856487 C8.405866 151.65893966 8.405866 151.65893966 8.406202 153.26103919 C8.40652942 154.83520461 8.40652942 154.83520461 8.40686345 156.44117135 C8.40730692 158.56779587 8.40775348 160.6944204 8.40820312 162.82104492 C8.40842455 163.87592756 8.40864598 164.9308102 8.40887412 166.01765899 C8.41282191 183.10957939 8.4302746 200.20145716 8.45356265 217.29336109 C8.47727186 234.8358089 8.48973832 252.37823532 8.49090457 269.92069942 C8.49182162 279.7723436 8.49758145 289.62393225 8.51572418 299.47556114 C8.53111942 307.86496024 8.53624907 316.25428663 8.52798608 324.64369716 C8.52407741 328.92415212 8.52501971 333.20446065 8.53904343 337.48489761 C8.55176942 341.40509475 8.55059635 345.32503524 8.53845271 349.24523196 C8.53649344 350.66183221 8.53958482 352.07845055 8.54829708 353.49502536 C8.59635134 361.83808617 8.60647208 368.98026452 3.58984375 375.99609375 C-1.77915474 381.15183762 -6.57596908 383.86189462 -14.14453125 384.3515625 C-20.49925108 384.15926011 -24.97615871 381.78595398 -29.83203125 377.7890625 C-34.81093327 372.45953358 -37.07880725 366.93671633 -37.09209347 359.70444202 C-37.09915906 358.47449853 -37.10622465 357.24455503 -37.11350435 355.97734052 C-37.11125307 354.61549333 -37.10880658 353.25364645 -37.10618591 351.89179993 C-37.11063875 350.44267904 -37.11595295 348.99356058 -37.12205464 347.54444569 C-37.13623979 343.56167583 -37.13789783 339.57898399 -37.13745773 335.59619248 C-37.1391055 331.30087234 -37.15217131 327.00558439 -37.16365051 322.71028137 C-37.18650329 313.31764404 -37.19442149 303.92502931 -37.19947696 294.53236794 C-37.2027338 288.66690691 -37.20925622 282.80145243 -37.21647835 276.9359951 C-37.23604501 260.69440707 -37.25244871 244.45282514 -37.25535488 228.21122456 C-37.25554245 227.17181662 -37.25573002 226.13240869 -37.25592327 225.06150354 C-37.25628952 222.9543881 -37.25665322 220.84727266 -37.25701439 218.74015722 C-37.2571972 217.69418903 -37.25738001 216.64822084 -37.25756836 215.57055664 C-37.25774891 214.52331085 -37.25792946 213.47606507 -37.25811548 212.39708456 C-37.26165681 195.42946915 -37.28867637 178.46198069 -37.32606625 161.4944093 C-37.3641517 144.07166472 -37.38351238 126.64898312 -37.38381439 109.22619599 C-37.38439893 99.44490107 -37.39288823 89.66375755 -37.42181206 79.8825016 C-37.44632916 71.5531889 -37.45360664 63.22408281 -37.43856453 54.89474378 C-37.43139684 50.64633494 -37.43224673 46.39833407 -37.45497513 42.14997101 C-37.47560373 38.25673153 -37.47292922 34.36421267 -37.45210028 30.47098067 C-37.44861273 29.06651462 -37.45348432 27.66199617 -37.46780472 26.25759879 C-37.55742934 16.85843395 -36.62441664 9.01678102 -30.06001848 1.85608274 C-21.3257908 -6.36175964 -9.73160046 -6.52899109 0 0 Z " fill="#FCFCFC" transform="translate(303.83203125,60.2109375)"/>
<path d="M0 0 C3.76553172 3.13654535 7.02029906 6.83372986 8.75390625 11.4609375 C8.95075876 14.39366486 9.03658309 17.23145408 9.02806091 20.16424561 C9.03591593 21.49622699 9.03591593 21.49622699 9.04392964 22.85511708 C9.05895587 25.83672492 9.05963537 28.81816155 9.06030273 31.79980469 C9.06792251 33.93517345 9.07634969 36.07053946 9.08552551 38.2059021 C9.10749674 44.01180762 9.11627309 49.81766047 9.12135196 55.62360287 C9.12499277 59.25061355 9.13123144 62.87761038 9.13835335 66.50461578 C9.16285806 79.15738024 9.17590172 91.81010365 9.17944336 104.46289062 C9.18307824 116.25765327 9.21296778 128.05215562 9.25484794 139.84683871 C9.28953918 149.97181044 9.30499161 160.09669589 9.30568939 170.22172666 C9.30648267 176.26947553 9.31524496 182.31695943 9.34368706 188.36464691 C9.369847 194.0544937 9.37208411 199.74385546 9.35603142 205.43373489 C9.35421523 207.52026298 9.36092285 209.60681881 9.37685013 211.6932869 C9.39729609 214.54599635 9.38676732 217.39700653 9.36863708 220.24969482 C9.38183705 221.07189034 9.39503702 221.89408586 9.40863699 222.74119639 C9.31147858 229.45229638 6.8985105 234.12611057 2.31123918 238.99087405 C-3.57850839 244.29051926 -9.6196728 244.98210703 -17.2734375 244.83984375 C-23.26778507 244.07578105 -27.22545337 240.83608002 -31.12109375 236.3984375 C-34.9864694 231.05512411 -35.53936661 227.33689794 -35.52024841 220.75762939 C-35.52548509 219.86964181 -35.53072177 218.98165422 -35.53611714 218.06675792 C-35.55114337 215.08515008 -35.55182287 212.10371345 -35.55249023 209.12207031 C-35.56011001 206.98670155 -35.56853719 204.85133554 -35.57771301 202.7159729 C-35.59968424 196.91006738 -35.60846059 191.10421453 -35.61353946 185.29827213 C-35.61718027 181.67126145 -35.62341894 178.04426462 -35.63054085 174.41725922 C-35.65504556 161.76449476 -35.66808922 149.11177135 -35.67163086 136.45898438 C-35.67526574 124.66422173 -35.70515528 112.86971938 -35.74703544 101.07503629 C-35.78172668 90.95006456 -35.79717911 80.82517911 -35.79787689 70.70014834 C-35.79867017 64.65239947 -35.80743246 58.60491557 -35.83587456 52.55722809 C-35.8620345 46.8673813 -35.86427161 41.17801954 -35.84821892 35.48814011 C-35.84640273 33.40161202 -35.85311035 31.31505619 -35.86903763 29.2285881 C-35.88948359 26.37587865 -35.87895482 23.52486847 -35.86082458 20.67218018 C-35.87402455 19.84998466 -35.88722452 19.02778914 -35.90082449 18.18067861 C-35.79943553 11.17735883 -33.01970446 6.62554179 -28.47265625 1.4375 C-19.81524718 -5.86850863 -9.35523663 -6.5392159 0 0 Z " fill="#FEFEFE" transform="translate(134.24609375,129.5390625)"/>
<path d="M0 0 C6.16744853 2.77952709 11.07770303 8.06541256 13.58203125 14.34765625 C13.77308183 16.88333131 13.856272 19.30806305 13.84272766 21.84284973 C13.84846598 22.97987895 13.84846598 22.97987895 13.85432023 24.13987845 C13.86464456 26.68162023 13.86065915 29.22313587 13.85668945 31.76489258 C13.86103631 33.5866161 13.86621937 35.40833779 13.87217712 37.23005676 C13.88558291 42.1805658 13.88614391 47.13099857 13.88361382 52.08152223 C13.88254494 56.21417026 13.8874255 60.34680282 13.89221925 64.47944754 C13.90332042 74.23053212 13.90374875 83.98157818 13.89770508 93.73266602 C13.89166716 103.79033204 13.9039703 113.84785809 13.92527515 123.90550023 C13.9428943 132.54087205 13.94889191 141.17619934 13.9456374 149.81158847 C13.94382452 154.96888608 13.94646109 160.12608391 13.96035194 165.28336525 C13.97293032 170.13511976 13.97098602 174.98665634 13.95794106 179.83840752 C13.95557555 181.6173472 13.95830903 183.39630221 13.96656418 185.1752243 C13.97703595 187.60757234 13.96892782 190.03918977 13.95625305 192.47151184 C13.96362734 193.17210985 13.97100162 193.87270787 13.97859937 194.59453613 C13.89477795 202.2640034 11.00336013 207.92632737 5.58203125 213.34765625 C-0.49431927 217.91198466 -7.03680534 218.31257923 -14.41796875 217.34765625 C-20.60640383 215.59875068 -24.93668655 211.6804484 -28.41796875 206.34765625 C-30.50130987 202.14073771 -30.70785064 198.30883243 -30.69212341 193.70097351 C-30.69736009 192.93872162 -30.70259677 192.17646973 -30.70799214 191.3911193 C-30.7229747 188.84101513 -30.7236969 186.29111193 -30.72436523 183.7409668 C-30.73198789 181.91086489 -30.74041557 180.08076618 -30.74958801 178.25067139 C-30.7715293 173.28157434 -30.78033142 168.31253883 -30.78541446 163.34339881 C-30.78905843 160.23783943 -30.79529871 157.13229617 -30.80241585 154.02674294 C-30.82690897 143.18945228 -30.83996197 132.35220949 -30.84350586 121.51489258 C-30.84714111 111.41795334 -30.87703616 101.32131808 -30.91891044 91.22447175 C-30.95361598 82.55169563 -30.96905435 73.87902024 -30.96975189 65.20617515 C-30.97054461 60.02809225 -30.97928094 54.85031903 -31.00774956 49.67230797 C-31.03393462 44.8007362 -31.03613288 39.92973078 -31.02009392 35.05812073 C-31.01827979 33.27313819 -31.02496692 31.48812306 -31.04091263 29.70321083 C-31.18747438 12.2281089 -31.18747438 12.2281089 -25.41796875 6.34765625 C-18.1074392 -0.87640259 -10.06517599 -2.71548367 0 0 Z " fill="#FEFEFE" transform="translate(387.41796875,141.65234375)"/>
<path d="M0 0 C6.53691632 3.73538075 10.61935031 7.52760959 13.0625 14.75 C14.02642787 21.43163951 13.74238661 28.267782 13.69140625 35 C13.692236 36.98339976 13.69469939 38.96679944 13.69871521 40.95019531 C13.70156541 45.09591506 13.68694809 49.24109223 13.65942383 53.38671875 C13.62534271 58.6826197 13.63136687 63.97755116 13.6500864 69.27349854 C13.66068926 73.36580386 13.65168875 77.45788626 13.63670158 81.5501709 C13.63154342 83.50206845 13.63197263 85.45398951 13.63824654 87.40588379 C13.64373862 90.14088452 13.62319698 92.87452911 13.59594727 95.609375 C13.60247314 96.40444458 13.60899902 97.19951416 13.61572266 98.01867676 C13.50104375 104.8378738 11.51959443 110.82395713 7.09765625 116.08984375 C6.44667969 116.61707031 5.79570312 117.14429688 5.125 117.6875 C4.47660156 118.23277344 3.82820313 118.77804687 3.16015625 119.33984375 C-2.59328454 123.20761307 -8.18765965 123.49892892 -14.9375 122.75 C-21.0944693 120.98935981 -25.52172129 117.10037904 -28.9375 111.75 C-31.70174115 106.2814862 -32.37995138 102.0276389 -32.35742188 95.9440918 C-32.36589142 95.09106476 -32.37436096 94.23803772 -32.38308716 93.35916138 C-32.40637285 90.55569299 -32.4074812 87.7527763 -32.40625 84.94921875 C-32.41335752 82.98777551 -32.42105738 81.02633434 -32.42932129 79.06489563 C-32.4427474 74.95865091 -32.44434364 70.85259838 -32.43847656 66.74633789 C-32.43258746 61.5042246 -32.46314832 56.26303969 -32.50359344 51.02110577 C-32.52954335 46.97082111 -32.53234115 42.9207577 -32.52870178 38.87040138 C-32.53038673 36.93883752 -32.53996859 35.00726274 -32.55784607 33.07578087 C-32.72396779 12.90715798 -32.72396779 12.90715798 -26.9375 5.75 C-19.46286288 -1.14117502 -9.88823495 -4.01641331 0 0 Z " fill="#FDFDFD" transform="translate(209.9375,189.25)"/>
<path d="M0 0 C6.001058 3.52045365 10.49073865 8.92768817 12.6875 15.5 C12.96165466 18.57756042 12.96165466 18.57756042 12.99389648 22.05932617 C13.00988388 23.36806198 13.02587128 24.67679779 13.04234314 26.02519226 C13.04872222 27.44778043 13.05411421 28.87037333 13.05859375 30.29296875 C13.06757066 31.76402371 13.07669268 33.23507778 13.08595276 34.70613098 C13.10242041 37.78856619 13.11013826 40.87089311 13.11303711 43.95336914 C13.11840573 47.87955583 13.15603055 51.80470621 13.20178127 55.73060131 C13.23171432 58.77034599 13.23876422 61.80984657 13.23976326 64.84972572 C13.24393676 66.29566484 13.25625424 67.74160666 13.27728081 69.18739891 C13.40315366 78.5943394 12.74577854 86.73749651 6.28001404 94.10343933 C0.70783961 99.16888917 -5.44497569 101.1195085 -12.828125 100.83984375 C-20.00999383 99.8574183 -24.28185767 95.9614258 -28.8671875 90.59765625 C-31.9725669 86.09065966 -32.57226155 82.17864035 -32.63476562 76.75708008 C-32.64469543 76.0994165 -32.65462524 75.44175293 -32.66485596 74.76416016 C-32.69394217 72.59924037 -32.7076783 70.43461393 -32.71875 68.26953125 C-32.72440475 67.52535131 -32.73005951 66.78117138 -32.73588562 66.01444054 C-32.76581248 62.07365894 -32.78430528 58.1330226 -32.79296875 54.19213867 C-32.80391042 50.14473339 -32.85191804 46.0986833 -32.90891266 42.05170155 C-32.94638632 38.91930925 -32.95658823 35.78723569 -32.9596405 32.65463829 C-32.96564855 31.16401474 -32.98155217 29.67339375 -33.00801086 28.18299294 C-33.1608454 18.90961333 -32.38144477 11.90003553 -26.3125 4.5 C-19.19750041 -2.42589661 -9.09577955 -3.90573126 0 0 Z " fill="#FCFCFC" transform="translate(51.3125,200.5)"/>
<path d="M0 0 C6.04310365 2.6430823 10.58284845 7.45147846 13.10749817 13.52709961 C14.61196257 19.17122607 14.19940254 25.15749901 14.18359375 30.9609375 C14.18816205 32.43153116 14.19346955 33.9021227 14.19947815 35.37271118 C14.20838573 38.44745584 14.20601394 41.52194045 14.19604492 44.59667969 C14.18456895 48.51607926 14.20475663 52.43457598 14.23396206 56.35385704 C14.25240605 59.38928835 14.25201525 62.42450666 14.24632454 65.45998001 C14.24617226 66.90391937 14.25213817 68.34787404 14.26461601 69.79175949 C14.33041422 78.65416492 14.33857958 86.91851538 8.07298279 93.77182007 C3.09341716 98.46273879 -2.31145802 101.0490714 -9.1875 101.375 C-15.1624366 101.15739988 -19.55949983 99.4022666 -23.97265625 95.359375 C-31.67055411 86.96166824 -31.71346305 78.86739633 -31.68359375 67.87890625 C-31.68816159 66.40591696 -31.69346895 64.93292979 -31.69947815 63.45994568 C-31.70838486 60.38100497 -31.70601427 57.30232397 -31.69604492 54.22338867 C-31.68455878 50.29492382 -31.70477268 46.36735836 -31.73396206 42.43901157 C-31.75238609 39.39933156 -31.75201936 36.35986463 -31.74632454 33.32014275 C-31.74617208 31.87258582 -31.75215385 30.42501375 -31.76461601 28.97751045 C-31.83323936 19.70113056 -31.6449704 12.86467385 -25.25 5.6953125 C-24.59 5.15648437 -23.93 4.61765625 -23.25 4.0625 C-22.59 3.50820312 -21.93 2.95390625 -21.25 2.3828125 C-14.88582025 -2.21630177 -7.43575192 -2.35271838 0 0 Z " fill="#FDFDFD" transform="translate(467.25,200.0625)"/>
</svg>
